# AST/ASF file generated using VICON BodyLanguage
# -----------------------------------------------
:version 1.10
:name VICON
:units
  mass 1.0
  length 0.45
  angle deg
:documentation
   .ast/.asf automatically generated from VICON data using
   VICON BodyBuilder and BodyLanguage model FoxedUp or BRILLIANT.MOD
:root
   order TX TY TZ RX RY RZ
   axis XYZ
   position 0 0 0  
   orientation 0 0 0 
:bonedata
  begin
     id 1 
     name lhipjoint
     direction 0.690799 -0.707083 0.151096 
     length 2.54797 
     axis 0 0 0  XYZ
  end
  begin
     id 2 
     name lfemur
     direction 0.34202 -0.939693 0  
     length 7.21646  
     axis 0 0 20  XYZ
    dof rx ry rz
    limits (-160.0 20.0)
           (-70.0 70.0)
           (-60.0 70.0)
  end
  begin
     id 3 
     name ltibia
     direction 0.34202 -0.939693 0   
     length 8.16759   
     axis 0 0 20   XYZ
    dof rx
    limits (-10.0 170.0)
  end
  begin
     id 4 
     name lfoot
     direction 0.0487203 -0.133858 0.989802   
     length 1.93375   
     axis -90 7.62852e-016 20   XYZ
    dof rx rz
    limits (-45.0 90.0)
           (-70.0 20.0)
  end
  begin
     id 5 
     name ltoes
     direction 1.53453e-011 -4.21783e-011 1   
     length 0.979747   
     axis -90 7.62852e-016 20   XYZ
    dof rx
    limits (-90.0 20.0)
  end
  begin
     id 6 
     name rhipjoint
     direction -0.694693 -0.703425 0.150315   
     length 2.56122  
     axis 0 0 0  XYZ 
  end
  begin
     id 7 
     name rfemur
     direction -0.34202 -0.939693 0   
     length 7.36786   
     axis 0 0 -20   XYZ
    dof rx ry rz
    limits (-160.0 20.0)
           (-70.0 70.0)
           (-70.0 60.0)
  end
  begin
     id 8 
     name rtibia
     direction -0.34202 -0.939693 0   
     length 8.07288   
     axis 0 0 -20   XYZ
    dof rx
    limits (-10.0 170.0)
 end
 begin
     id 9 
     name rfoot
     direction -0.0428397 -0.117701 0.992125   
     length 1.88295  
     axis -90 -7.62852e-016 -20   XYZ
    dof rx rz
    limits (-45.0 90.0)
           (-20.0 70.0)
  end
  begin
     id 10 
     name rtoes
     direction -1.53456e-011 -4.2187e-011 1   
     length 0.955578   
     axis -90 -7.62852e-016 -20   XYZ
    dof rx
    limits (-90.0 20.0)
  end
  begin
     id 11 
     name lowerback
     direction 0.0288145 0.999398 -0.0193241   
     length 1.92149   
     axis 0 0 0   XYZ
    dof rx ry rz
    limits (-20.0 45.0)
           (-30.0 30.0)
           (-30.0 30.0)
  end
  begin
     id 12 
     name upperback
     direction 0.0233784 0.998099 0.0570278   
     length 1.90435   
     axis 0 0 0   XYZ
    dof rx ry rz
    limits (-20.0 45.0)
           (-30.0 30.0)
           (-30.0 30.0)
  end
  begin
     id 13 
     name thorax
     direction 0.0096694 0.997833 0.0650817   
     length 1.9111   
     axis 0 0 0   XYZ
    dof rx ry rz
    limits (-20.0 45.0)
           (-30.0 30.0)
           (-30.0 30.0)
  end
  begin
     id 14 
     name lowerneck
     direction 0.00516803 0.999916 0.0118722   
     length 1.74664   
     axis 0 0 0   XYZ
    dof rx ry rz
    limits (-20.0 45.0)
           (-30.0 30.0)
           (-30.0 30.0)
  end
  begin
     id 15 
     name upperneck
     direction -0.0510851 0.996117 -0.071696   
     length 1.68498   
     axis 0 0 0   XYZ
    dof rx ry rz
    limits (-20.0 45.0)
           (-30.0 30.0)
           (-30.0 30.0)
  end
  begin
     id 16
     name head
     direction -0.019188 0.999436 -0.0275702  
     length 1.83483  
     axis 0 0 0   XYZ
    dof rx ry rz
    limits (-20.0 45.0)
           (-30.0 30.0)
           (-30.0 30.0)
  end
  begin
     id 17 
     name lclavicle
     direction 0.967006 0.248456 -0.0562957  
     length 3.39395  
     axis 0 0 0   XYZ
    dof ry rz
    limits (-20.0 10.0)
           (0.0 20.0)
  end
  begin
     id 18 
     name lhumerus
     direction 1 -4.48962e-011 -5.62711e-019   
     length 5.24318   
     axis 180 -30 -90   XYZ
    dof rx ry rz
    limits (-60.0 90.0)
           (-90.0 90.0)
           (-90.0 90.0)
  end
  begin
     id 19
     name lradius
     direction 1 -4.48966e-011 7.90625e-027   
     length 2.98999   
     axis 180 -30 -90   XYZ
    dof rx
    limits (-10.0 170.0)
  end
  begin
     id 20
     name lwrist
     direction 1 -4.48959e-011 1.61068e-026   
     length 1.49499   
     axis -9.31229e-015 90 90   XYZ
    dof ry
    limits (-180.0 0.0)
 end
  begin
     id 21 
     name lhand
     direction 1 -4.49017e-011 3.22136e-026   
     length 0.726745   
     axis -2.0555e-014 90 90   XYZ
    dof rx rz
    limits (-90.0 90.0)
           (-45.0 45.0)
  end
  begin
     id 22 
     name lfingers
     direction 1 -4.4898e-011 6.44272e-026   
     length 0.58592   
     axis -4.11101e-014 90 90   XYZ
    dof rx
    limits (0.0 90.0)
  end
  begin
     id 23
     name lthumb
     direction 0.707107 -6.34922e-011 0.707107   
     length 0.841268   
     axis -90 45 2.85299e-015   XYZ
    dof rx rz
    limits (-45.0 45.0)
           (-45.0 45.0)
  end
  begin
     id 24 
     name rclavicle
     direction -0.972232 0.230238 0.0419005   
     length 3.40416  
     axis 0 0 0   XYZ 
    dof ry rz
    limits (-10.0 20.0)
           (-20.0 0.0)
  end
  begin
     id 25 
     name rhumerus
     direction -1 -4.48976e-011 2.48487e-027  
     length 5.37045   
     axis 180 30 90   XYZ
    dof rx ry rz
    limits (-90.0 60.0)
           (-90.0 90.0)
           (-90.0 90.0)
  end
  begin
     id 26 
     name rradius
     direction -1 -4.48942e-011 7.87951e-027   
     length 2.92792   
     axis 180 30 90   XYZ
    dof rx
    limits (-10.0 170.0)
  end
  begin
     id 27 
     name rwrist
     direction -1 -4.48969e-011 1.61068e-026   
     length 1.46396   
     axis -9.31229e-015 -90 -90   XYZ
    dof ry
    limits (-180.0 0.0)
  end
  begin
     id 28
     name rhand
     direction -1 -4.49043e-011 3.22136e-026   
     length 0.784497   
     axis -2.0555e-014 -90 -90   XYZ
    dof rx rz
    limits (-90.0 90.0)
           (-45.0 45.0)
  end
  begin
     id 29
     name rfingers
     direction -1 -4.48823e-011 6.44272e-026   
     length 0.632482   
     axis -4.11101e-014 -90 -90   XYZ
    dof rx
    limits (0.0 90.0)
  end
  begin
     id 30
     name rthumb
     direction -0.707107 -6.34923e-011 0.707107   
     length 0.908121   
     axis -90 -45 -2.85299e-015   XYZ
    dof rx rz
    limits (-45.0 45.0)
           (-45.0 45.0)
  end
:hierarchy
  begin
    root lhipjoint rhipjoint lowerback
    lhipjoint lfemur
    lfemur ltibia
    ltibia lfoot
    lfoot ltoes
    rhipjoint rfemur
    rfemur rtibia
    rtibia rfoot
    rfoot rtoes
    lowerback upperback
    upperback thorax
    thorax lowerneck lclavicle rclavicle
    lowerneck upperneck
    upperneck head
    lclavicle lhumerus
    lhumerus lradius
    lradius lwrist
    lwrist lhand lthumb
    lhand lfingers
    rclavicle rhumerus
    rhumerus rradius
    rradius rwrist
    rwrist rhand rthumb
    rhand rfingers
  end

#!OML:ASF E:\Style6\Style6.ASF
:FULLY-SPECIFIED
:DEGREES
796
root 0.252091 18.2961 0.485527 10.0592 -4.24537 -3.31542
lowerback -7.57276 -0.929161 3.62779
upperback -4.60287 -1.47917 2.98341
thorax -0.527888 -0.779105 0.937524
lowerneck -8.91006 1.18018 4.04876
upperneck 9.98155 1.84078 -6.95406
head 4.5488 0.644559 -2.69116
rclavicle -2.14687e-014 2.06736e-014
rhumerus 1.83829 10.9134 -79.2317
rradius 107.801
rwrist 40.0285
rhand -26.8315 12.6581
rfingers 7.12502
rthumb -0.257317 -17.3215
lclavicle -2.14687e-014 2.06736e-014
lhumerus -15.2456 -20.3134 83.939
lradius 56.3248
lwrist -16.2263
lhand -8.66997 20.4042
lfingers 7.12502
lthumb 17.2641 49.6573
rfemur 0 0 0
rtibia 0
rfoot 0 0
rtoes 0
lfemur -12.7841 -24.0503 -12.8699
ltibia 17.3323
lfoot -7.82135 28.6387
ltoes -4.34258
797
root 0.250724 18.2973 0.486243 10.0338 -4.14933 -3.21639
lowerback -7.45686 -0.926792 3.49035
upperback -4.67559 -1.4575 2.94081
thorax -0.66412 -0.767972 0.975182
lowerneck -8.77251 1.09839 4.03183
upperneck 9.9229 1.7251 -6.88504
head 4.50032 0.59432 -2.67428
rclavicle -6.26172e-015 -1.51076e-014
rhumerus 1.79664 10.9912 -79.0125
rradius 107.837
rwrist 40.3121
rhand -27.1857 12.7737
rfingers 7.12502
rthumb -0.599452 -17.2052
lclavicle -6.26172e-015 -1.51076e-014
lhumerus -15.5638 -20.5284 84.007
lradius 57.5841
lwrist -16.4206
lhand -8.71933 20.1664
lfingers 7.12502
lthumb 17.2166 49.4238
rfemur 0 0 0
rtibia 0
rfoot 0 0
rtoes 0
lfemur -12.7615 -24.1487 -12.9601
ltibia 17.278
lfoot -7.77585 28.643
ltoes -4.54775
798
root 0.248796 18.2971 0.48566 10.0068 -4.03722 -3.16266
lowerback -7.41823 -0.903088 3.40552
upperback -4.67389 -1.41848 2.91022
thorax -0.681705 -0.747129 0.994264
lowerneck -8.71152 1.01593 3.97942
upperneck 9.826 1.60952 -6.81606
head 4.45296 0.541756 -2.65113
rclavicle -1.62506e-014 1.90833e-014
rhumerus 1.80678 11.0166 -78.7175
rradius 107.821
rwrist 40.5496
rhand -27.6911 12.7964
rfingers 7.12502
rthumb -1.08756 -17.1805
lclavicle -1.62506e-014 1.90833e-014
lhumerus -15.7441 -20.8443 84.0574
lradius 59.0017
lwrist -16.0593
lhand -9.11907 19.8806
lfingers 7.12502
lthumb 16.8318 49.1711
rfemur 0 0 0
rtibia 0
rfoot 0 0
rtoes 0
lfemur -12.7575 -24.2275 -12.9896
ltibia 17.2432
lfoot -7.67032 28.5936
ltoes -4.87434
799
root 0.245325 18.2969 0.484949 9.99062 -3.90609 -3.2056
lowerback -7.38367 -0.862281 3.42078
upperback -4.67208 -1.36291 2.89273
thorax -0.699333 -0.719863 0.971938
lowerneck -8.68416 0.927123 3.96677
upperneck 9.79811 1.48719 -6.78687
head 4.43262 0.483644 -2.6477
rclavicle -1.35174e-014 -1.35174e-014
rhumerus 1.75269 11.0061 -78.423
rradius 107.715
rwrist 40.7398
rhand -28.2599 12.7627
rfingers 7.12502
rthumb -1.6369 -17.2108
lclavicle -1.35174e-014 -1.35174e-014
lhumerus -15.8475 -21.257 84.0494
lradius 60.5627
lwrist -15.7285
lhand -9.37734 19.818
lfingers 7.12502
lthumb 16.5832 49.1295
rfemur 0 0 0
rtibia 0
rfoot 0 0
rtoes 0
lfemur -12.7635 -24.2674 -12.9067
ltibia 17.2262
lfoot -7.65268 28.5059
ltoes -5.00418
800
root 0.2435 18.2955 0.485207 10.0188 -3.77521 -3.27509
lowerback -7.41436 -0.814068 3.47598
upperback -4.67231 -1.30338 2.86907
thorax -0.684137 -0.691188 0.920047
lowerneck -8.68564 0.839955 3.89119
upperneck 9.80919 1.36503 -6.65541
head 4.42806 0.428282 -2.60229
rclavicle 2.03754e-015 6.36111e-015
rhumerus 1.68636 10.9887 -78.2046
rradius 107.502
rwrist 40.943
rhand -28.764 12.7563
rfingers 7.12502
rthumb -2.12377 -17.2128
lclavicle 2.03754e-015 6.36111e-015
lhumerus -15.84 -21.7236 83.9664
lradius 62.2644
lwrist -15.6269
lhand -9.34745 20.4008
lfingers 7.12502
lthumb 16.612 49.7099
rfemur 0 0 0
rtibia 0
rfoot 0 0
rtoes 0
lfemur -12.8096 -24.2869 -12.7894
ltibia 17.2238
lfoot -7.56286 28.4476
ltoes -5.89978
801
root 0.241294 18.295 0.485906 10.064 -3.60589 -3.33089
lowerback -7.56516 -0.783766 3.53066
upperback -4.61856 -1.27668 2.8399
thorax -0.546968 -0.677251 0.857837
lowerneck -8.69236 0.773255 3.79469
upperneck 9.74806 1.2665 -6.49416
head 4.40361 0.38615 -2.54218
rclavicle 7.60351e-015 2.06736e-014
rhumerus 1.66337 10.9665 -78.0095
rradius 107.203
rwrist 41.1163
rhand -29.2238 12.7464
rfingers 7.12502
rthumb -2.56781 -17.2179
lclavicle 7.60351e-015 2.06736e-014
lhumerus -15.7068 -22.1922 83.7975
lradius 64.0987
lwrist -15.3842
lhand -9.39692 21.2268
lfingers 7.12502
lthumb 16.5643 50.5399
rfemur 0 0 0
rtibia 0
rfoot 0 0
rtoes 0
lfemur -12.8902 -24.2427 -12.6754
ltibia 17.2203
lfoot -7.39107 28.3255
ltoes -7.05641
